<svg width="135" height="162" viewBox="0 0 135 162" fill="none" xmlns="http://www.w3.org/2000/svg">
<circle cx="67.5" cy="67.5" r="58" stroke="#D1D1D1"/>
<circle cx="67.5" cy="154.5" r="7.5" fill="#159822"/>
<path d="M132.5 67.5C132.5 103.399 103.399 132.5 67.5 132.5C31.6015 132.5 2.5 103.399 2.5 67.5C2.5 31.6015 31.6015 2.5 67.5 2.5C103.399 2.5 132.5 31.6015 132.5 67.5ZM67.5 134.5C104.503 134.5 134.5 104.503 134.5 67.5C134.5 30.4969 104.503 0.5 67.5 0.5C30.4969 0.5 0.5 30.4969 0.5 67.5C0.5 104.503 30.4969 134.5 67.5 134.5Z" fill="#159822" stroke="#159822"/>
<path fill-rule="evenodd" clip-rule="evenodd" d="M66 148L66 134L69 134L69 148L66 148Z" fill="#159822"/>
<circle cx="86" cy="87" r="16" fill="white" stroke="#159822" stroke-width="2"/>
<path d="M67.2034 50.4937C67.2034 50.1 67.5231 49.7803 67.9168 49.7803C68.3104 49.7803 68.6302 50.1 68.6302 50.4937C68.6302 50.8873 68.3104 51.2071 67.9168 51.2071C67.5231 51.2071 67.2034 50.8873 67.2034 50.4937Z" fill="#159822" stroke="#159822"/>
<path d="M38.0817 56.5397V56.078L37.6214 56.0413C34.7597 55.8134 32.5 53.4125 32.5 50.4938V43.2134C32.5 42.8195 32.8194 42.5 33.2134 42.5H92.9129C93.3069 42.5 93.6263 42.8195 93.6263 43.2134V50.4938C93.6263 53.4125 91.3666 55.8135 88.505 56.0413L88.0447 56.078V56.5397V62.6279C88.0447 67.0918 86.8528 71.4723 84.5991 75.2959C82.4112 79.0073 79.2834 82.1095 75.5545 84.2665L75.5572 84.2711L75.5539 84.2669C71.9265 86.3736 67.5982 87.6094 63.0632 87.6094C58.6864 87.6094 54.3827 86.4614 50.6141 84.2906L50.6132 84.29L50.6009 84.283L50.5974 84.281L50.5574 84.2579L50.5564 84.2576C43.0806 79.926 38.0817 71.8449 38.0817 62.6279V56.5397ZM50.6261 84.2986C50.6285 84.3002 50.6294 84.3009 50.6283 84.3001L50.6261 84.2986ZM74.2209 83.3761L74.4838 83.2345V82.9359V72.3351C74.4838 66.0373 69.3609 60.9145 63.0632 60.9145C56.7654 60.9145 51.6425 66.0373 51.6425 72.3351V82.9359V83.2345L51.9054 83.3761C55.3175 85.2139 59.1592 86.1826 63.0632 86.1826C66.9672 86.1826 70.8089 85.2139 74.2209 83.3761ZM75.9106 81.425V82.395L76.7007 81.8322C82.8665 77.4404 86.6178 70.2707 86.6178 62.6279V56.5609V56.0609H86.1178H40.0085H39.5085V56.5609V62.6279C39.5085 70.2707 43.2598 77.4404 49.4256 81.8322L50.2157 82.395V81.425V72.3351C50.2157 65.2515 55.9795 59.4877 63.0632 59.4877C70.1468 59.4877 75.9106 65.2515 75.9106 72.3351V81.425ZM91.6995 49.7804H92.1995V49.2804V44.4268V43.9268H91.6995H34.4268H33.9268V44.4268V50.4938C33.9268 52.7772 35.7837 54.634 38.067 54.634H38.1034H38.1405H38.1784H38.217H38.2564H38.2965H38.3373H38.3789H38.4213H38.4644H38.5082H38.5527H38.5979H38.6439H38.6906H38.738H38.7862H38.835H38.8845H38.9348H38.9857H39.0374H39.0897H39.1428H39.1965H39.2509H39.306H39.3617H39.4182H39.4753H39.5331H39.5915H39.6506H39.7104H39.7709H39.8319H39.8937H39.9561H40.0191H40.0828H40.1471H40.2121H40.2777H40.3439H40.4107H40.4782H40.5463H40.615H40.6843H40.7543H40.8248H40.896H40.9677H41.0401H41.113H41.1866H41.2607H41.3354H41.4107H41.4866H41.5631H41.6402H41.7178H41.796H41.8747H41.954H42.0339H42.1143H42.1953H42.2769H42.359H42.4416H42.5248H42.6085H42.6927H42.7775H42.8628H42.9487H43.035H43.1219H43.2093H43.2972H43.3856H43.4746H43.564H43.654H43.7444H43.8353H43.9268H44.0187H44.1111H44.204H44.2974H44.3912H44.4855H44.5803H44.6756H44.7713H44.8675H44.9642H45.0613H45.1588H45.2569H45.3553H45.4542H45.5536H45.6533H45.7536H45.8542H45.9553H46.0568H46.1587H46.2611H46.3639H46.467H46.5706H46.6746H46.779H46.8838H46.989H47.0946H47.2006H47.307H47.4138H47.5209H47.6285H47.7364H47.8446H47.9533H48.0623H48.1717H48.2815H48.3916H48.502H48.6128H48.724H48.8355H48.9474H49.0596H49.1721H49.285H49.3982H49.5117H49.6255H49.7397H49.8542H49.969H50.0841H50.1996H50.3153H50.4314H50.5477H50.6644H50.7813H50.8985H51.016H51.1338H51.2519H51.3703H51.4889H51.6079H51.727H51.8465H51.9662H52.0862H52.2064H52.3269H52.4477H52.5687H52.6899H52.8114H52.9331H53.0551H53.1773H53.2997H53.4223H53.5452H53.6683H53.7916H53.9152H54.0389H54.1628H54.287H54.4114H54.5359H54.6607H54.7857H54.9108H55.0361H55.1616H55.2873H55.4132H55.5393H55.6655H55.7919H55.9185H56.0452H56.1721H56.2991H56.4263H56.5537H56.6812H56.8088H56.9366H57.0645H57.1926H57.3208H57.4491H57.5776H57.7061H57.8348H57.9637H58.0926H58.2216H58.3508H58.48H58.6094H58.7389H58.8684H58.9981H59.1278H59.2576H59.3875H59.5175H59.6476H59.7777H59.9079H60.0382H60.1686H60.299H60.4295H60.56H60.6906H60.8212H60.9519H61.0826H61.2134H61.3442H61.475H61.6059H61.7368H61.8678H61.9987H62.1297H62.2607H62.3917H62.5227H62.6537H62.7847H62.9158H63.0468H63.1778H63.3089H63.4399H63.5709H63.7018H63.8328H63.9637H64.0946H64.2255H64.3564H64.4872H64.618H64.7487H64.8794H65.01H65.1406H65.2712H65.4017H65.5321H65.6625H65.7928H65.923H66.0531H66.1832H66.3132H66.4432H66.573H66.7028H66.8324H66.962H67.0915H67.2209H67.3502H67.4793H67.6084H67.7374H67.8662H67.9949H68.1235H68.252H68.3804H68.5086H68.6367H68.7646H68.8924H69.0201H69.1477H69.275H69.4023H69.5294H69.6563H69.783H69.9096H70.0361H70.1623H70.2884H70.4144H70.5401H70.6657H70.791H70.9162H71.0412H71.166H71.2906H71.415H71.5392H71.6632H71.787H71.9106H72.034H72.1571H72.28H72.4027H72.5252H72.6475H72.7695H72.8913H73.0128H73.1341H73.2551H73.3759H73.4965H73.6168H73.7368H73.8566H73.9761H74.0954H74.2143H74.333H74.4515H74.5696H74.6875H74.8051H74.9224H75.0394H75.1561H75.2725H75.3886H75.5044H75.6199H75.7351H75.85H75.9645H76.0788H76.1927H76.3063H76.4196H76.5325H76.6451H76.7574H76.8693H76.9809H77.0922H77.2031H77.3136H77.4238H77.5336H77.6431H77.7522H77.8609H77.9693H78.0773H78.1849H78.2921H78.399H78.5055H78.6115H78.7172H78.8225H78.9274H79.0319H79.136H79.2397H79.343H79.4458H79.5483H79.6503H79.7519H79.8531H79.9538H80.0541H80.154H80.2535H80.3525H80.451H80.5491H80.6468H80.744H80.8408H80.9371H81.0329H81.1283H81.2232H81.3176H81.4116H81.505H81.598H81.6906H81.7826H81.8741H81.9652H82.0557H82.1458H82.2353H82.3244H82.4129H82.5009H82.5885H82.6755H82.7619H82.8479H82.9333H83.0182H83.1026H83.1864H83.2697H83.3525H83.4347H83.5163H83.5975H83.678H83.758H83.8375H83.9163H83.9947H84.0724H84.1496H84.2262H84.3022H84.3776H84.4525H84.5268H84.6004H84.6735H84.746H84.8179H84.8892H84.9599H85.03H85.0994H85.1683H85.2365H85.3041H85.3711H85.4375H85.5032H85.5683H85.6327H85.6966H85.7598H85.8223H85.8842H85.9454H86.006H86.0659H86.1252H86.1838H86.2417H86.299H86.3556H86.4115H86.4667H86.5213H86.5752H86.6284H86.6809H86.7327H86.7838H86.8342H86.8839H86.9329H86.9811H87.0287H87.0756H87.1217H87.1671H87.2118H87.2558H87.299H87.3415H87.3833H87.4243H87.4646H87.5042H87.543H87.581H87.6183H87.6548H87.6906H87.7256H87.7598H87.7933H87.826H87.8579H87.889H87.9194H87.9489H87.9777H88.0057H88.0329H88.0593C89.8628 54.634 91.3938 53.4645 91.962 51.8622L92.1987 51.1951H91.4908H72.7704C72.3698 51.1951 72.057 50.8812 72.057 50.4938C72.057 50.0999 72.3764 49.7804 72.7704 49.7804H91.6995Z" fill="#159822" stroke="#159822"/>
<path d="M55.0693 72.3347C55.0693 67.9273 58.6558 64.3408 63.0632 64.3408C67.4705 64.3408 71.057 67.9273 71.057 72.3347C71.057 76.742 67.4705 80.3285 63.0632 80.3285C58.6558 80.3285 55.0693 76.742 55.0693 72.3347ZM56.4961 72.3347C56.4961 75.9562 59.4417 78.9017 63.0632 78.9017C66.6847 78.9017 69.6302 75.9562 69.6302 72.3347C69.6302 68.7132 66.6847 65.7676 63.0632 65.7676C59.4417 65.7676 56.4961 68.7132 56.4961 72.3347Z" fill="#159822" stroke="#159822"/>
<path d="M59.923 72.3355C59.923 70.6045 61.3321 69.1953 63.0632 69.1953C64.7943 69.1953 66.2034 70.6045 66.2034 72.3355C66.2034 74.0666 64.7943 75.4757 63.0632 75.4757C61.3321 75.4757 59.923 74.0666 59.923 72.3355ZM61.3498 72.3355C61.3498 73.2807 62.118 74.0489 63.0632 74.0489C64.0084 74.0489 64.7766 73.2807 64.7766 72.3355C64.7766 71.3903 64.0084 70.6221 63.0632 70.6221C62.118 70.6221 61.3498 71.3903 61.3498 72.3355Z" fill="#159822" stroke="#159822"/>
<path d="M93.3559 80.5441C92.816 80.0533 91.9764 80.0918 91.483 80.6342L83.392 89.5437L79.4831 85.5698C78.9671 85.0472 78.1289 85.0393 77.6076 85.5539C77.085 86.0672 77.077 86.9068 77.5917 87.4294L82.4847 92.4034C82.7354 92.658 83.075 92.8 83.4304 92.8C83.4384 92.8 83.4477 92.8 83.4556 92.8013C83.8217 92.7933 84.1666 92.6368 84.4119 92.3663L93.446 82.4183C93.9381 81.8744 93.8983 81.0362 93.3559 80.5441Z" fill="#159822"/>
</svg>
