<svg width="136" height="163" viewBox="0 0 136 163" fill="none" xmlns="http://www.w3.org/2000/svg">
<ellipse cx="67.6384" cy="67.1717" rx="58.5" ry="58.9471" fill="#D1D1D1"/>
<path d="M66.6845 83.411C67.2585 82.8315 67.2585 81.8937 66.6845 81.3142C66.11 80.7364 65.1793 80.7364 64.6042 81.3142C64.0309 81.8937 64.0309 82.8315 64.6042 83.411C65.1793 83.9888 66.11 83.9888 66.6845 83.411Z" fill="#159822"/>
<path d="M49.0148 107.387C49.5847 107.966 50.5125 107.973 51.0899 107.4L58.2185 100.323C59.4296 99.1024 59.7978 97.2955 59.2653 95.7249L60.7986 94.2347C61.6242 93.4312 62.7112 92.9883 63.8602 92.9883H83.4069C86.8747 92.9883 90.1523 91.6463 92.6371 89.2096C92.7394 89.1094 91.8609 90.1521 105.972 73.157C108.065 70.6618 107.752 66.915 105.274 64.8036C102.811 62.7119 99.1211 63.0124 97.0224 65.4648L88.3461 74.4509C87.2505 73.0922 85.5798 72.2452 83.7746 72.2452H67.3786C65.0455 71.2616 62.5699 70.7637 60.0156 70.7637C52.9353 70.7637 46.7529 74.059 43.4351 80.2373C42.0373 79.9704 40.5631 80.3965 39.5025 81.4652L32.5078 88.5346C31.9367 89.1117 31.9356 90.0456 32.5055 90.6245L49.0148 107.387ZM60.015 73.7267C62.2671 73.7267 64.4445 74.1834 66.4881 75.0843C66.6742 75.1665 66.8747 75.2087 67.0775 75.2087H83.7746C85.3689 75.2087 86.7156 76.5189 86.7156 78.1717C86.7156 79.806 85.3965 81.1352 83.7746 81.1352H71.7782C70.9664 81.1352 70.308 81.7987 70.308 82.6167C70.308 83.4353 70.9664 84.0982 71.7782 84.0982H83.7746C87.0178 84.0982 89.6559 81.4398 89.6559 78.1717C89.6559 77.9112 89.6376 77.653 89.6042 77.3971C97.9973 68.7033 99.1808 67.4817 99.2314 67.421C100.279 66.1745 102.14 66.0165 103.377 67.0678C104.616 68.1232 104.773 69.9966 103.722 71.25L90.5338 87.137C88.608 89 86.0796 90.0253 83.4069 90.0253H63.8602C61.9448 90.0253 60.1316 90.7634 58.7562 92.1025L57.5067 93.3177L45.9877 81.7107C48.6798 76.6213 53.7315 73.7267 60.015 73.7267ZM41.5834 83.5592C42.0683 83.0706 42.8129 82.9826 43.4041 83.3508C43.6586 83.5071 42.9278 82.8367 56.1393 96.1313C56.7271 96.7235 56.6955 97.6672 56.1474 98.2195L50.0702 104.253L35.6228 89.583L41.5834 83.5592Z" fill="#159822"/>
<path d="M53.2911 48.2424C53.2911 57.2292 60.5466 64.5411 69.4648 64.5411C78.383 64.5411 85.6385 57.2292 85.6385 48.2424C85.6385 39.2557 78.383 31.9443 69.4648 31.9443C60.5466 31.9443 53.2911 39.2557 53.2911 48.2424ZM82.6982 48.2424C82.6982 55.5955 76.7617 61.5776 69.4648 61.5776C62.1679 61.5776 56.2314 55.5955 56.2314 48.2424C56.2314 40.89 62.1679 34.9079 69.4648 34.9079C76.7617 34.9079 82.6982 40.89 82.6982 48.2424Z" fill="#159822"/>
<path d="M73.7582 44.989C73.9181 44.8075 74 44.5903 74 44.3485C74 44.0998 73.9229 43.8764 73.7534 43.7023C73.5953 43.524 73.3823 43.4413 73.1428 43.4413H72.3336C72.5006 43.2498 72.6417 43.0478 72.7559 42.835L72.7572 42.8325C73.0758 42.2226 73.2354 41.571 73.2354 40.8812C73.2354 39.9439 72.9901 39.1147 72.4931 38.4038C71.9997 37.6981 71.3178 37.1571 70.4572 36.7783C69.6098 36.3835 68.644 36.1895 67.5653 36.1895C66.699 36.1895 65.9031 36.3297 65.181 36.6142C64.4826 36.8803 63.8659 37.2414 63.3333 37.6988C62.8062 38.1365 62.3693 38.6233 62.0248 39.1598L62.0248 39.1597L62.0227 39.1631C61.8475 39.4456 61.7725 39.7437 61.8325 40.046L61.834 40.0537L61.8361 40.0613C61.9137 40.3548 62.0923 40.5824 62.3578 40.7352L62.3668 40.7404L62.3762 40.7448C62.6556 40.8762 62.9462 40.8979 63.2346 40.8017C63.5276 40.7088 63.7566 40.5292 63.9086 40.2669C64.136 39.9389 64.4064 39.631 64.7205 39.3432L64.7209 39.3429C65.0388 39.0504 65.4293 38.8172 65.8971 38.6458C66.3588 38.4766 66.9215 38.3813 67.5905 38.3664C68.6612 38.3669 69.4852 38.6148 70.088 39.0842L70.088 39.0843L70.093 39.088C70.6936 39.5318 71.0037 40.1837 71.0037 41.0851C71.0037 41.7824 70.7844 42.3544 70.3513 42.8181C70.1198 43.0659 69.7999 43.2755 69.3838 43.4413H61.6279C61.3856 43.4413 61.1704 43.5254 61.0007 43.6964L60.9948 43.7024L60.9894 43.7086C60.8365 43.8847 60.7707 44.106 60.7707 44.3485C60.7707 44.5817 60.8395 44.7948 60.9802 44.9771L60.9897 44.9894L61.0007 45.0005C61.1704 45.1715 61.3856 45.2556 61.6279 45.2556H73.1428C73.3848 45.2556 73.5997 45.1712 73.7582 44.989ZM73.7582 44.989C73.758 44.9892 73.7578 44.9895 73.7576 44.9897L73.5701 44.8244M73.7582 44.989C73.7585 44.9888 73.7587 44.9885 73.7589 44.9883L73.5701 44.8244M73.5701 44.8244C73.4652 44.9452 73.3227 45.0056 73.1428 45.0056H61.6279C61.448 45.0056 61.2981 44.9452 61.1781 44.8244M73.5701 44.8244C73.6901 44.6884 73.75 44.5297 73.75 44.3485C73.75 44.152 73.6901 43.9934 73.5701 43.8726C73.4652 43.7517 73.3227 43.6913 73.1428 43.6913L61.1781 44.8244M61.1781 44.8244C61.0732 44.6884 61.0207 44.5297 61.0207 44.3485C61.0207 44.152 61.0732 43.9934 61.1781 43.8726V44.8244ZM61.6279 48.111H62.3169C62.1731 48.2709 62.0551 48.4464 61.9643 48.6377L61.9643 48.6376L61.9623 48.6421C61.7961 49.0104 61.7153 49.4162 61.7153 49.8553C61.7153 50.8939 61.9658 51.7982 62.4778 52.556C62.9863 53.3086 63.6919 53.8815 64.5855 54.2764L64.5855 54.2765L64.5904 54.2785C65.4965 54.6563 66.5424 54.8416 67.7227 54.8416C69.2139 54.8416 70.4988 54.516 71.5657 53.8521L71.5657 53.8521L71.5679 53.8507C72.6262 53.1763 73.4025 52.2934 73.8884 51.2035L73.8894 51.2013C74.018 50.9051 74.0282 50.6055 73.8824 50.33C73.7377 50.0412 73.4753 49.8619 73.1419 49.7729C72.8675 49.6946 72.5938 49.7273 72.3331 49.8586L72.3331 49.8585L72.3264 49.8622C72.0832 49.9941 71.8982 50.1922 71.7719 50.4467L71.7709 50.4486C71.4493 51.1109 70.9453 51.6497 70.2493 52.0649C69.5763 52.4603 68.7455 52.6646 67.7452 52.6646C66.5191 52.6646 65.6076 52.3997 64.9776 51.9035C64.3541 51.3975 64.037 50.7024 64.037 49.7873C64.037 49.3338 64.1522 48.936 64.379 48.5863C64.4989 48.4016 64.6601 48.2424 64.8677 48.111H73.1428C73.3823 48.111 73.5953 48.0283 73.7534 47.85C73.9229 47.6759 74 47.4525 74 47.2038C74 46.9665 73.9207 46.7547 73.7584 46.5856C73.6042 46.3931 73.3907 46.2967 73.1428 46.2967H61.6279C61.3756 46.2967 61.1576 46.3959 60.9907 46.5852L60.9907 46.5852L60.9894 46.5867C60.8397 46.7591 60.7707 46.9708 60.7707 47.2038C60.7707 47.4463 60.8365 47.6676 60.9894 47.8437L60.9948 47.8499L61.0007 47.8558C61.1704 48.0269 61.3856 48.111 61.6279 48.111Z" fill="#159822" stroke="#159822" stroke-width="0.5"/>
<ellipse cx="67.6384" cy="154.674" rx="7.5" ry="7.55732" fill="#159822"/>
<path fill-rule="evenodd" clip-rule="evenodd" d="M67.6384 133.009C103.813 133.009 133.138 103.459 133.138 67.0082C133.138 30.5571 103.813 1.00764 67.6384 1.00764C31.4638 1.00764 2.13843 30.5571 2.13843 67.0082C2.13843 103.459 31.4638 133.009 67.6384 133.009ZM67.6384 134.016C104.365 134.016 134.138 104.016 134.138 67.0082C134.138 30.0006 104.365 0 67.6384 0C30.9115 0 1.13843 30.0006 1.13843 67.0082C1.13843 104.016 30.9115 134.016 67.6384 134.016Z" fill="#D1D1D1"/>
<path fill-rule="evenodd" clip-rule="evenodd" d="M3.11637 67.5117C3.11637 103.419 32.0039 132.527 67.6384 132.527C103.273 132.527 132.16 103.419 132.16 67.5117H135.138C135.138 105.076 104.918 135.528 67.6384 135.528C30.3592 135.528 0.138428 105.076 0.138428 67.5117H3.11637Z" fill="#159822"/>
<path fill-rule="evenodd" clip-rule="evenodd" d="M66.1384 148.124L66.1384 134.017L69.1384 134.017L69.1384 148.124L66.1384 148.124Z" fill="#159822"/>
</svg>
